<svg xmlns="http://www.w3.org/2000/svg" width="167.34" height="35" viewBox="0 0 167.34 35"><rect class="svg__rect" x="0" y="0" width="96.46000000000001" height="35" fill="#23C55F"/><rect class="svg__rect" x="94.46000000000001" y="0" width="72.88" height="35" fill="#FA8128"/><path class="svg__text" d="M15.70 22L14.22 22L14.22 13.47L17.48 13.47Q18.91 13.47 19.75 14.21Q20.59 14.96 20.59 16.18L20.59 16.18Q20.59 17.44 19.77 18.13Q18.95 18.83 17.46 18.83L17.46 18.83L15.70 18.83L15.70 22ZM15.70 14.66L15.70 17.64L17.48 17.64Q18.27 17.64 18.69 17.27Q19.10 16.90 19.10 16.19L19.10 16.19Q19.10 15.50 18.68 15.09Q18.26 14.68 17.52 14.66L17.52 14.66L15.70 14.66ZM26.36 22L24.88 22L24.88 13.47L27.88 13.47Q29.35 13.47 30.15 14.13Q30.96 14.79 30.96 16.05L30.96 16.05Q30.96 16.90 30.54 17.48Q30.13 18.06 29.39 18.37L29.39 18.37L31.31 21.92L31.31 22L29.72 22L28.01 18.71L26.36 18.71L26.36 22ZM26.36 14.66L26.36 17.52L27.88 17.52Q28.63 17.52 29.05 17.15Q29.48 16.77 29.48 16.11L29.48 16.11Q29.48 15.43 29.09 15.05Q28.70 14.68 27.92 14.66L27.92 14.66L26.36 14.66ZM35.08 18.00L35.08 18.00L35.08 17.52Q35.08 16.28 35.52 15.32Q35.97 14.37 36.77 13.86Q37.58 13.35 38.62 13.35Q39.66 13.35 40.47 13.85Q41.28 14.35 41.72 15.29Q42.15 16.23 42.16 17.48L42.16 17.48L42.16 17.96Q42.16 19.21 41.73 20.16Q41.29 21.10 40.49 21.61Q39.68 22.12 38.63 22.12L38.63 22.12Q37.60 22.12 36.78 21.61Q35.97 21.10 35.53 20.17Q35.09 19.23 35.08 18.00ZM36.56 17.46L36.56 17.96Q36.56 19.36 37.11 20.13Q37.66 20.90 38.63 20.90L38.63 20.90Q39.62 20.90 40.15 20.15Q40.68 19.40 40.68 17.96L40.68 17.96L40.68 17.51Q40.68 16.09 40.14 15.34Q39.61 14.58 38.62 14.58L38.62 14.58Q37.66 14.58 37.12 15.33Q36.58 16.09 36.56 17.46L36.56 17.46ZM46.02 19.57L46.02 19.57L47.50 19.57Q47.50 20.25 47.84 20.59Q48.17 20.93 48.81 20.93L48.81 20.93Q49.41 20.93 49.76 20.54Q50.12 20.14 50.12 19.45L50.12 19.45L50.12 13.47L51.59 13.47L51.59 19.45Q51.59 20.68 50.83 21.40Q50.06 22.12 48.81 22.12L48.81 22.12Q47.48 22.12 46.75 21.44Q46.02 20.77 46.02 19.57ZM61.85 22L56.28 22L56.28 13.47L61.81 13.47L61.81 14.66L57.76 14.66L57.76 17.02L61.26 17.02L61.26 18.19L57.76 18.19L57.76 20.82L61.85 20.82L61.85 22ZM65.78 18.19L65.78 18.19L65.78 17.39Q65.78 16.19 66.21 15.27Q66.64 14.35 67.43 13.85Q68.23 13.35 69.28 13.35L69.28 13.35Q70.70 13.35 71.56 14.12Q72.42 14.89 72.56 16.29L72.56 16.29L71.08 16.29Q70.98 15.37 70.55 14.96Q70.12 14.55 69.28 14.55L69.28 14.55Q68.32 14.55 67.80 15.26Q67.28 15.96 67.27 17.33L67.27 17.33L67.27 18.09Q67.27 19.47 67.76 20.20Q68.26 20.92 69.21 20.92L69.21 20.92Q70.09 20.92 70.53 20.53Q70.97 20.14 71.08 19.22L71.08 19.22L72.56 19.22Q72.43 20.59 71.55 21.35Q70.67 22.12 69.21 22.12L69.21 22.12Q68.19 22.12 67.42 21.63Q66.64 21.15 66.22 20.26Q65.80 19.37 65.78 18.19ZM78.55 14.66L75.92 14.66L75.92 13.47L82.68 13.47L82.68 14.66L80.02 14.66L80.02 22L78.55 22L78.55 14.66Z" fill="#000000"/><path class="svg__text" d="M108.22 17.80L108.22 17.80Q108.22 16.55 108.82 15.55Q109.43 14.56 110.49 14.00Q111.55 13.43 112.88 13.43L112.88 13.43Q114.21 13.43 115.28 14.00Q116.34 14.56 116.95 15.55Q117.55 16.55 117.55 17.80L117.55 17.80Q117.55 19.05 116.95 20.04Q116.34 21.04 115.28 21.60Q114.22 22.17 112.88 22.17L112.88 22.17Q111.55 22.17 110.49 21.60Q109.43 21.04 108.82 20.04Q108.22 19.05 108.22 17.80ZM110.62 17.80L110.62 17.80Q110.62 18.51 110.92 19.05Q111.22 19.60 111.74 19.90Q112.25 20.20 112.88 20.20L112.88 20.20Q113.52 20.20 114.04 19.90Q114.55 19.60 114.85 19.05Q115.15 18.51 115.15 17.80L115.15 17.80Q115.15 17.09 114.85 16.54Q114.55 16 114.04 15.70Q113.52 15.40 112.88 15.40L112.88 15.40Q112.25 15.40 111.73 15.70Q111.22 16 110.92 16.54Q110.62 17.09 110.62 17.80ZM124.66 22L122.28 22L122.28 13.60L126.13 13.60Q127.27 13.60 128.11 13.98Q128.94 14.35 129.40 15.06Q129.86 15.76 129.86 16.71L129.86 16.71Q129.86 17.62 129.43 18.30Q129.00 18.98 128.21 19.36L128.21 19.36L130.02 22L127.48 22L125.96 19.77L124.66 19.77L124.66 22ZM124.66 15.47L124.66 17.93L125.98 17.93Q126.71 17.93 127.08 17.61Q127.46 17.29 127.46 16.71L127.46 16.71Q127.46 16.12 127.08 15.79Q126.71 15.47 125.98 15.47L125.98 15.47L124.66 15.47ZM141.39 22L134.65 22L134.65 13.60L141.24 13.60L141.24 15.44L137.00 15.44L137.00 16.85L140.73 16.85L140.73 18.63L137.00 18.63L137.00 20.17L141.39 20.17L141.39 22ZM145.77 17.80L145.77 17.80Q145.77 16.55 146.37 15.55Q146.97 14.56 148.04 14.00Q149.10 13.43 150.43 13.43L150.43 13.43Q151.76 13.43 152.82 14.00Q153.89 14.56 154.49 15.55Q155.10 16.55 155.10 17.80L155.10 17.80Q155.10 19.05 154.49 20.04Q153.89 21.04 152.83 21.60Q151.77 22.17 150.43 22.17L150.43 22.17Q149.10 22.17 148.04 21.60Q146.97 21.04 146.37 20.04Q145.77 19.05 145.77 17.80ZM148.16 17.80L148.16 17.80Q148.16 18.51 148.47 19.05Q148.77 19.60 149.28 19.90Q149.80 20.20 150.43 20.20L150.43 20.20Q151.07 20.20 151.59 19.90Q152.10 19.60 152.40 19.05Q152.70 18.51 152.70 17.80L152.70 17.80Q152.70 17.09 152.40 16.54Q152.10 16 151.59 15.70Q151.07 15.40 150.43 15.40L150.43 15.40Q149.79 15.40 149.28 15.70Q148.77 16 148.47 16.54Q148.16 17.09 148.16 17.80Z" fill="#000000" x="107.46000000000001"/></svg>